<?xml version="1.0" encoding="utf-8"?>
<!-- Generator: Adobe Illustrator 27.2.0, SVG Export Plug-In . SVG Version: 6.00 Build 0)  -->
<svg version="1.1" xmlns="http://www.w3.org/2000/svg" xmlns:xlink="http://www.w3.org/1999/xlink" x="0px" y="0px"
	 viewBox="0 0 385.7 508.1" style="enable-background:new 0 0 385.7 508.1;" xml:space="preserve">
<style type="text/css">
	.st0{fill:none;stroke:#000000;stroke-width:0.3;}
	.st1{stroke:#000000;stroke-width:0.3;}
	.st2{font-family:'SourceSansPro-Regular';}
	.st3{font-size:7.5px;}
	.st4{fill:none;}
	.st5{font-size:7px;}
</style>
<g id="Layer_1">
	<polyline class="st0" points="211.3,289.4 183.3,289.4 183.3,249.2 211.3,249.2 	"/>
	<g>
		<rect x="211.3" y="278.5" class="st0" width="53.5" height="22.3"/>
	</g>
	<g>
		<rect x="317.9" y="319.8" class="st0" width="53.5" height="22.3"/>
	</g>
	<g>
		<rect x="317.9" y="356" class="st0" width="53.5" height="22.3"/>
	</g>
	<polyline class="st0" points="114.8,483.3 95.6,483.3 95.6,104.7 114.8,104.6 	"/>
	<polyline class="st0" points="211.3,212.8 190.9,212.8 190.9,172.6 211.3,172.6 	"/>
	<line class="st0" x1="264.9" y1="57.6" x2="312.8" y2="57.6"/>
	<polyline class="st0" points="211.3,131.4 191.5,131.4 191.5,57.6 211.3,57.6 	"/>
	<line class="st0" x1="314.2" y1="131.4" x2="264.9" y2="131.4"/>
	<polyline class="st0" points="312.8,90.7 289.2,90.7 289.2,25.3 312.8,25.3 	"/>
	<line class="st0" x1="168.4" y1="193.7" x2="190.9" y2="193.7"/>
	<line class="st0" x1="95.6" y1="193.7" x2="114.8" y2="193.7"/>
	<line class="st0" x1="168.4" y1="271.3" x2="183.3" y2="271.3"/>
	<line class="st0" x1="95.6" y1="271.3" x2="114.8" y2="271.3"/>
	<line class="st0" x1="95.8" y1="393.7" x2="114.8" y2="393.7"/>
	<g>
		<rect x="211.3" y="161.5" class="st0" width="53.5" height="22.3"/>
	</g>
	<g>
		<rect x="211.3" y="119.9" class="st0" width="53.5" height="22.3"/>
	</g>
	<rect x="312.8" y="47.1" class="st0" width="53.5" height="22.3"/>
	<g>
		<rect x="312.8" y="80.2" class="st0" width="53.5" height="22.3"/>
	</g>
	<g>
		<rect x="211.3" y="201.9" class="st0" width="53.5" height="22.3"/>
	</g>
	<g>
		<rect x="312.8" y="14" class="st0" width="53.5" height="22.3"/>
	</g>
	<rect x="114.8" y="382.2" class="st0" width="53.5" height="22.3"/>
	<line class="st0" x1="95.8" y1="423.3" x2="114.8" y2="423.3"/>
	<g>
		<rect x="114.8" y="411.8" class="st0" width="53.5" height="22.3"/>
	</g>
	<line class="st0" x1="95.8" y1="321.5" x2="114.8" y2="321.5"/>
	<rect x="114.8" y="310" class="st0" width="53.5" height="22.3"/>
	<line class="st0" x1="95.8" y1="351.9" x2="114.8" y2="351.9"/>
	<g>
		<rect x="114.8" y="340.4" class="st0" width="53.5" height="22.3"/>
	</g>
	<g>
		<rect x="114.8" y="260.5" class="st0" width="53.5" height="22.3"/>
	</g>
	<rect x="114.8" y="471.6" class="st0" width="53.5" height="22.3"/>
	<g>
		<rect x="114.8" y="181.7" class="st0" width="53.5" height="22.3"/>
	</g>
	<line class="st0" x1="81" y1="256.3" x2="95.6" y2="256.3"/>
	<rect x="16.2" y="244.8" class="st0" width="64.8" height="22.3"/>
	<rect x="114.8" y="441.8" class="st0" width="53.5" height="22.3"/>
	<g>
		<rect x="211.3" y="47.1" class="st0" width="53.5" height="22.3"/>
	</g>
	<polyline class="st0" points="317.2,367.1 289.2,367.1 289.2,331 317.9,331 	"/>
	<g>
		<rect x="211.3" y="238.2" class="st0" width="53.5" height="22.3"/>
	</g>
	<line class="st1" x1="168.4" y1="104.7" x2="191.5" y2="104.7"/>
	<g>
		<rect x="114.8" y="93.5" class="st0" width="53.5" height="22.3"/>
	</g>
	<polyline class="st0" points="313.3,148.5 289.2,148.5 289.2,114.9 313.9,114.9 	"/>
	<line class="st0" x1="168.4" y1="351.9" x2="289.2" y2="351.9"/>
	<line class="st0" x1="95.6" y1="453.3" x2="114.8" y2="453.3"/>
</g>
<g id="Text">
	<text transform="matrix(1 0 0 1 225.7766 170.5513)"><tspan x="0" y="0" class="st2 st3">Outline  </tspan><tspan x="4.1" y="8.5" class="st2 st3">entry</tspan></text>
	<text transform="matrix(1 0 0 1 229.6014 133.1348)" class="st2 st3">Page  </text>
	<text transform="matrix(1 0 0 1 321.7384 56.376)"><tspan x="0" y="0" class="st2 st3">Thumbnail  </tspan><tspan x="8.2" y="8.5" class="st2 st3">image</tspan></text>
	<text transform="matrix(1 0 0 1 319.6534 93.4678)" class="st2 st3">Annotations  </text>
	<text transform="matrix(1 0 0 1 225.7766 210.8843)"><tspan x="0" y="0" class="st2 st3">Outline  </tspan><tspan x="4.1" y="8.5" class="st2 st3">entry</tspan></text>
	<text transform="matrix(1 0 0 1 326.1595 23.0356)"><tspan x="0" y="0" class="st2 st3">Content  </tspan><tspan x="2.4" y="8.5" class="st2 st3">stream</tspan></text>
	<text transform="matrix(1 0 0 1 123.3302 424.8403)" class="st2 st3">Collections  </text>
	<text transform="matrix(1 0 0 1 125.9588 318.9819)"><tspan x="0" y="0" class="st2 st3">Metadata  </tspan><tspan x="0.7" y="8.5" class="st2 st3">reference</tspan></text>
	<text transform="matrix(1 0 0 1 129.975 349.3862)"><tspan x="0" y="0" class="st2 st3">Names  </tspan><tspan x="-4.3" y="8.5" class="st2 st3">dictionary</tspan></text>
	<text transform="matrix(1 0 0 1 119.0028 273.5522)" class="st2 st3">Structure tree  </text>
	<text transform="matrix(1 0 0 1 122.2174 392.5415)"><tspan x="0" y="0" class="st2 st3">Interactive  </tspan><tspan x="10.1" y="8.5" class="st2 st3">form</tspan></text>
	<text transform="matrix(1 0 0 1 324.7084 329.0532)"><tspan x="0" y="0" class="st2 st3">Embedded  </tspan><tspan x="11.5" y="8.5" class="st2 st3">files</tspan></text>
	<text transform="matrix(1 0 0 1 323.6434 369.1675)" class="st2 st3">JavaScripts  </text>
	<text transform="matrix(1 0 0 1 129.2439 190.9673)"><tspan x="0" y="0" class="st2 st3">Outline  </tspan><tspan x="-2.5" y="8.5" class="st2 st3">hierarchy</tspan></text>
	<text transform="matrix(1 0 0 1 19.6232 258.0513)" class="st2 st3">Document catalog  </text>
	<text transform="matrix(1 0 0 1 123.9058 450.7241)"><tspan x="0" y="0" class="st2 st3">Document  </tspan><tspan x="8.3" y="8.5" class="st2 st3">parts  </tspan></text>
	<text transform="matrix(1 0 0 1 237.0499 190.7954)"><tspan x="0" y="0" class="st2 st5">• </tspan><tspan x="0" y="4" class="st2 st5">• </tspan><tspan x="0" y="8" class="st2 st5">•</tspan></text>
	<text transform="matrix(1 0 0 1 343.6211 347.981)"><tspan x="0" y="0" class="st2 st5">• </tspan><tspan x="0" y="3" class="st2 st5">• </tspan><tspan x="0" y="6" class="st2 st5">•</tspan></text>
	<text transform="matrix(1 0 0 1 229.6014 60.3765)" class="st2 st3">Page  </text>
	<text transform="matrix(1 0 0 1 222.5741 247.2114)"><tspan x="0" y="0" class="st2 st3">Structure  </tspan><tspan x="2.6" y="8.5" class="st2 st3">element</tspan></text>
	<text transform="matrix(1 0 0 1 237.0499 266.6533)"><tspan x="0" y="0" class="st2 st5">• </tspan><tspan x="0" y="4" class="st2 st5">• </tspan><tspan x="0" y="8" class="st2 st5">•</tspan></text>
	<text transform="matrix(1 0 0 1 237.0499 91.3974)"><tspan x="0" y="0" class="st2 st5">• </tspan><tspan x="0" y="4" class="st2 st5">• </tspan><tspan x="0" y="8" class="st2 st5">•</tspan></text>
	<text transform="matrix(1 0 0 1 222.5741 288.3306)"><tspan x="0" y="0" class="st2 st3">Structure  </tspan><tspan x="2.6" y="8.5" class="st2 st3">element</tspan></text>
	<text transform="matrix(1 0 0 1 328.9709 133.1191)" class="st2 st5">•  •  •</text>
	<text transform="matrix(1 0 0 1 328.9709 116.4834)" class="st2 st5">•  •  •</text>
	<text transform="matrix(1 0 0 1 328.9709 149.7861)" class="st2 st5">•  •  •</text>
	<text transform="matrix(1 0 0 1 133.0687 102.5058)"><tspan x="0" y="0" class="st2 st3">Page  </tspan><tspan x="2.2" y="8.5" class="st2 st3">tree</tspan></text>
	<text transform="matrix(1 0 0 1 122.0927 480.6733)"><tspan x="0" y="0" class="st2 st3">Information  </tspan><tspan x="-0.2" y="8.5" class="st2 st3">and controls</tspan></text>
</g>
</svg>
